<?xml version="1.0" encoding="iso-8859-1"?>
<!-- Generator: Adobe Illustrator 19.0.0, SVG Export Plug-In . SVG Version: 6.00 Build 0)  -->
<svg version="1.1" id="Layer_1" xmlns="http://www.w3.org/2000/svg" xmlns:xlink="http://www.w3.org/1999/xlink" x="0px" y="0px"
	 viewBox="0 0 302.211 302.211" style="enable-background:new 0 0 302.211 302.211;" xml:space="preserve">
<g>
	<g>
		<g>
			<path d="M278.145,69.639c-3.722-5.77-11.895-6.555-16.75-1.695c-3.564,3.569-4.228,9.143-1.493,13.383
				c15.361,23.801,23.224,52.855,19.872,83.925c-6.506,60.277-55.46,108.805-115.807,114.663
				c-81.49,7.901-149.635-60.288-141.657-141.788C28.14,78.597,75.508,30.014,134.875,22.68
				c32.841-4.054,63.551,4.408,88.284,21.104c4.217,2.844,9.863,2.234,13.459-1.362c0.049-0.054,0.104-0.104,0.153-0.153
				c4.768-4.768,4.059-12.756-1.531-16.527C205.45,5.657,168.201-4.145,128.532,1.658C63.869,11.117,11.815,62.599,1.849,127.191
				c-15.715,101.842,71.066,188.731,172.88,173.212C239,290.606,290.405,239.14,300.366,174.897
				C306.403,135.91,297.271,99.276,278.145,69.639z"/>
			<path d="M204.485,87.005l-88.355,23.714c-3.733,1.003-6.659,3.923-7.656,7.656l-23.714,88.35
				c-0.997,3.716,0.049,7.678,2.752,10.418c2.06,2.092,4.85,3.226,7.716,3.226c0.888,0,1.782-0.109,2.665-0.332l89.391-22.673
				c3.858-0.975,6.866-3.983,7.841-7.841l22.679-89.391c0.948-3.727-0.153-7.678-2.899-10.38
				C212.163,87.054,208.207,86.019,204.485,87.005z M175.698,177.943l-65.213,16.538l17.301-64.451l64.456-17.301L175.698,177.943z"
				/>
		</g>
	</g>
</g>
<g>
</g>
<g>
</g>
<g>
</g>
<g>
</g>
<g>
</g>
<g>
</g>
<g>
</g>
<g>
</g>
<g>
</g>
<g>
</g>
<g>
</g>
<g>
</g>
<g>
</g>
<g>
</g>
<g>
</g>
</svg>
