<?xml version="1.0" encoding="iso-8859-1"?>
<!-- Generator: Adobe Illustrator 17.1.0, SVG Export Plug-In . SVG Version: 6.00 Build 0)  -->
<!DOCTYPE svg PUBLIC "-//W3C//DTD SVG 1.1//EN" "http://www.w3.org/Graphics/SVG/1.1/DTD/svg11.dtd">
<svg version="1.1" id="Capa_1" xmlns="http://www.w3.org/2000/svg" xmlns:xlink="http://www.w3.org/1999/xlink" x="0px" y="0px"
	 viewBox="0 0 370.309 370.309" style="enable-background:new 0 0 370.309 370.309;" xml:space="preserve">
<path d="M252.192,370.309H116.201c-2.463,0-4.56-1.794-4.94-4.228c-0.38-2.435,1.068-4.782,3.415-5.534l65.479-20.978V235.327
	c-2.889-0.155-5.772-0.445-8.644-0.87c-12.97-1.92-31-8.822-40.192-15.389c-16.947-12.104-25.541-33.136-25.541-62.51
	c0-18.267,6.89-37.577,13.553-56.252c6.021-16.874,11.707-32.813,11.707-46.19c0-27.253-14.231-45.852-14.375-46.036
	c-1.173-1.507-1.389-3.556-0.55-5.271S118.691,0,120.602,0h129.105c1.914,0,3.66,1.093,4.497,2.814
	c0.836,1.722,0.617,3.77-0.565,5.274c-0.137,0.176-14.368,18.774-14.368,46.027c0,13.378,5.687,29.316,11.707,46.19
	c6.663,18.675,13.553,37.985,13.553,56.252c0,35.923-13.761,53.783-25.305,62.441c-9.721,7.29-28.554,13.7-40.428,15.457
	c-2.871,0.425-5.754,0.715-8.643,0.87v104.855l63.563,20.364c2.346,0.752,3.795,3.1,3.415,5.534
	C256.752,368.515,254.656,370.309,252.192,370.309z M148.196,360.309h72.001l-36-11.534L148.196,360.309z M140.176,41.676
	c0.545,3.922,0.862,8.078,0.862,12.44c0,15.108-5.969,31.839-12.289,49.551c-6.377,17.873-12.971,36.355-12.971,52.892
	c0,25.959,7.184,44.252,21.353,54.373c7.834,5.596,24.584,11.967,35.843,13.633c8.082,1.197,16.277,1.197,24.359,0
	c10.492-1.553,27.813-7.505,35.892-13.564c9.719-7.289,21.305-22.651,21.305-54.441c0-16.536-6.594-35.019-12.971-52.892
	c-6.319-17.712-12.289-34.442-12.289-49.551c0-4.362,0.317-8.519,0.862-12.44H140.176z M138.211,31.676h93.887
	c2.334-9.165,5.709-16.551,8.525-21.676H129.686C132.501,15.125,135.876,22.511,138.211,31.676z M158.223,212.001
	c-0.543,0-1.095-0.089-1.637-0.277c-0.745-0.259-18.353-6.529-26.833-23.487c-8.361-16.724-4.576-34.56-4.411-35.311
	c0.594-2.696,3.261-4.405,5.958-3.809c2.693,0.592,4.397,3.252,3.812,5.945c-0.037,0.172-3.15,15.228,3.586,28.701
	c6.621,13.241,21.036,18.466,21.181,18.518c2.598,0.919,3.97,3.769,3.059,6.369C162.215,210.71,160.287,212.001,158.223,212.001z"/>
<g>
</g>
<g>
</g>
<g>
</g>
<g>
</g>
<g>
</g>
<g>
</g>
<g>
</g>
<g>
</g>
<g>
</g>
<g>
</g>
<g>
</g>
<g>
</g>
<g>
</g>
<g>
</g>
<g>
</g>
</svg>
