<?xml version="1.0" encoding="iso-8859-1"?>
<!-- Generator: Adobe Illustrator 19.0.0, SVG Export Plug-In . SVG Version: 6.00 Build 0)  -->
<svg version="1.1" id="Layer_1" xmlns="http://www.w3.org/2000/svg" xmlns:xlink="http://www.w3.org/1999/xlink" x="0px" y="0px"
	 viewBox="0 0 502 502" style="enable-background:new 0 0 502 502;" xml:space="preserve">
<g>
	<g>
		<path d="M428.483,73.517C381.076,26.108,318.045,0,251,0S120.924,26.108,73.517,73.517C26.108,120.924,0,183.955,0,251
			s26.108,130.076,73.517,177.483C120.924,475.892,183.955,502,251,502s130.076-26.108,177.483-73.517
			C475.892,381.076,502,318.045,502,251S475.892,120.924,428.483,73.517z M251,482C123.626,482,20,378.374,20,251S123.626,20,251,20
			s231,103.626,231,231S378.374,482,251,482z"/>
		<path d="M251,51C140.72,51,51,140.72,51,251s89.72,200,200,200s200-89.72,200-200S361.28,51,251,51z M251,431
			c-99.252,0-180-80.748-180-180S151.748,71,251,71s180,80.748,180,180S350.252,431,251,431z"/>
		<path d="M293.332,208.668c-54.633-54.633-133.506-62.762-136.837-63.081c-2.963-0.288-5.914,0.772-8.025,2.883
			c-2.11,2.111-3.168,5.055-2.883,8.025c0.319,3.331,8.448,82.204,63.081,136.837s133.506,62.762,136.837,63.081
			c0.318,0.031,0.638,0.046,0.955,0.046c2.639,0,5.186-1.045,7.07-2.929c2.11-2.111,3.168-5.055,2.883-8.025
			C356.094,342.174,347.965,263.301,293.332,208.668z M212,251c0-21.505,17.495-39,39-39s39,17.495,39,39s-17.495,39-39,39
			S212,272.505,212,251z M239.252,193.178c-23.125,4.691-41.383,22.949-46.074,46.074c-15.434-27.894-22.569-55.908-25.622-71.695
			C183.346,170.61,211.359,177.745,239.252,193.178z M262.748,308.822c23.125-4.691,41.383-22.949,46.074-46.074
			c15.433,27.892,22.568,55.906,25.621,71.696C318.653,331.39,290.64,324.255,262.748,308.822z"/>
		<path d="M251,133c5.522,0,10-4.478,10-10V96c0-5.522-4.478-10-10-10s-10,4.478-10,10v27C241,128.522,245.478,133,251,133z"/>
		<path d="M123,241H96c-5.522,0-10,4.478-10,10s4.478,10,10,10h27c5.522,0,10-4.478,10-10S128.522,241,123,241z"/>
		<path d="M153.419,334.438l-19.092,19.092c-3.905,3.905-3.905,10.237,0,14.143c1.953,1.952,4.512,2.929,7.071,2.929
			s5.118-0.977,7.071-2.929l19.092-19.092c3.905-3.905,3.905-10.237,0-14.143C163.655,330.534,157.325,330.534,153.419,334.438z"/>
		<path d="M180.929,306.929l-2.592,2.592c-3.905,3.905-3.905,10.237,0,14.143c1.953,1.952,4.512,2.929,7.071,2.929
			s5.118-0.977,7.071-2.929l2.592-2.592c3.905-3.905,3.905-10.237,0-14.143C191.165,303.024,184.835,303.024,180.929,306.929z"/>
		<path d="M251,369c-5.522,0-10,4.478-10,10v27c0,5.522,4.478,10,10,10s10-4.478,10-10v-27C261,373.478,256.522,369,251,369z"/>
		<path d="M406,241h-27c-5.522,0-10,4.478-10,10s4.478,10,10,10h27c5.522,0,10-4.478,10-10S411.522,241,406,241z"/>
		<path d="M367.673,134.327c-3.906-3.904-10.236-3.904-14.143,0l-19.092,19.092c-3.905,3.905-3.905,10.237,0,14.143
			c1.953,1.952,4.512,2.929,7.071,2.929s5.118-0.977,7.071-2.929l19.092-19.092C371.578,144.564,371.578,138.232,367.673,134.327z"
			/>
	</g>
</g>
<g>
</g>
<g>
</g>
<g>
</g>
<g>
</g>
<g>
</g>
<g>
</g>
<g>
</g>
<g>
</g>
<g>
</g>
<g>
</g>
<g>
</g>
<g>
</g>
<g>
</g>
<g>
</g>
<g>
</g>
</svg>
